<svg width="64" height="64" version="1.1" viewBox="0 0 22.576 12.538" xmlns="http://www.w3.org/2000/svg">
 <ellipse cx="11.6" cy="13.31" rx="8.2668" ry="7.3279" fill="none" stroke-width="3.0595"/>
 <g transform="scale(.64)">
  <rect x="4.3632" y="-3.56" width="26.548" height="26.711" fill="#fff" stroke-opacity="0"/>
  <path d="m14.698 3.1815c0 1.2185-0.9877 2.2047-2.2047 2.2047s-2.2047-0.98623-2.2047-2.2047c0-1.2185 0.9877-2.2047 2.2047-2.2047s2.2047 0.98623 2.2047 2.2047zm13.228 13.228c0 2.0254-1.6476 3.6745-3.6745 3.6745h-13.228c-2.0268 0-3.6745-1.6491-3.6745-3.6745s1.6476-3.6745 3.6745-3.6745h13.228c2.0268 0 3.6745 1.6491 3.6745 3.6745zm-2.9396 0c0-1.2185-0.9877-2.2047-2.2047-2.2047s-2.2047 0.98623-2.2047 2.2047 0.9877 2.2047 2.2047 2.2047 2.2047-0.98623 2.2047-2.2047zm10.289-16.903v20.577c0 4.0581-3.2894 7.349-7.349 7.349h-20.577c-4.0581 0-7.349-3.2909-7.349-7.349v-20.577c0-4.0581 3.2909-7.349 7.349-7.349h20.577c4.0596 0 7.349 3.2909 7.349 7.349zm-5.8792 16.903c0-2.8411-2.3032-5.1443-5.1443-5.1443h-13.228c-2.8411 0-5.1443 2.3032-5.1443 5.1443s2.3032 5.1443 5.1443 5.1443h13.228c2.8411 0 5.1443-2.3032 5.1443-5.1443zm0-13.228c0-2.8411-2.3032-5.1443-5.1443-5.1443h-13.228c-2.8411 0-5.1443 2.3032-5.1443 5.1443s2.3032 5.1443 5.1443 5.1443h13.228c2.8411 0 5.1443-2.3032 5.1443-5.1443z" fill="#ff3e00" stroke-width="1.4698"/>
 </g>
</svg>
