<svg width="64" height="82.512" version="1.1" viewBox="0 0 22.576 16.165" xmlns="http://www.w3.org/2000/svg">
 <ellipse cx="11.6" cy="18.389" rx="8.2668" ry="7.3279" fill="none" stroke-width="3.0595"/>
 <g transform="translate(-.000256 5.0786)">
  <g transform="scale(.64)">
   <rect x="4.3632" y="-3.56" width="26.548" height="26.711" fill="#fff" stroke-opacity="0"/>
   <path d="m14.698 3.1815c0 1.2185-0.9877 2.2047-2.2047 2.2047s-2.2047-0.98623-2.2047-2.2047c0-1.2185 0.9877-2.2047 2.2047-2.2047s2.2047 0.98623 2.2047 2.2047zm13.228 13.228c0 2.0254-1.6476 3.6745-3.6745 3.6745h-13.228c-2.0268 0-3.6745-1.6491-3.6745-3.6745s1.6476-3.6745 3.6745-3.6745h13.228c2.0268 0 3.6745 1.6491 3.6745 3.6745zm-2.9396 0c0-1.2185-0.9877-2.2047-2.2047-2.2047s-2.2047 0.98623-2.2047 2.2047 0.9877 2.2047 2.2047 2.2047 2.2047-0.98623 2.2047-2.2047zm10.289-16.903v20.577c0 4.0581-3.2894 7.349-7.349 7.349h-20.577c-4.0581 0-7.349-3.2909-7.349-7.349v-20.577c0-4.0581 3.2909-7.349 7.349-7.349h20.577c4.0596 0 7.349 3.2909 7.349 7.349zm-5.8792 16.903c0-2.8411-2.3032-5.1443-5.1443-5.1443h-13.228c-2.8411 0-5.1443 2.3032-5.1443 5.1443s2.3032 5.1443 5.1443 5.1443h13.228c2.8411 0 5.1443-2.3032 5.1443-5.1443zm0-13.228c0-2.8411-2.3032-5.1443-5.1443-5.1443h-13.228c-2.8411 0-5.1443 2.3032-5.1443 5.1443s2.3032 5.1443 5.1443 5.1443h13.228c2.8411 0 5.1443-2.3032 5.1443-5.1443z" fill="#ff3e00" stroke-width="1.4698"/>
  </g>
  <path d="m17.804-10.843c-0.0917-0.35282-0.40163-0.6135-0.77699-0.65365-0.02001-0.0022-0.49755-0.05239-1.1914-0.05239-1.6576 0-3.917 0.27258-5.2675 1.571-2.5281 2.431-1.6097 6.3172-1.5695 6.4814 0.081339 0.331 0.35542 0.58606 0.70168 0.65301 0.02573 5e-3 0.64022 0.12184 1.512 0.12184 1.4457 0 3.4925-0.31104 5.0335-1.793 2.5335-2.4364 1.5992-6.1704 1.5581-6.3276z" fill="#55d400" stroke-width=".059125"/>
 </g>
</svg>
