<svg width="68" height="100" version="1.1" viewBox="0 0 23.987 19.59" xmlns="http://www.w3.org/2000/svg">
 <ellipse cx="6.6145" cy="21.796" rx="8.2668" ry="7.3279" fill="none" stroke-width="3.0595"/>
 <g transform="translate(-1.6523 .37592)">
  <g transform="matrix(1.7892 0 0 1.8007 -22.156 -28.706)"></g>
  <path transform="matrix(.070834 0 0 .068211 -4.4461 -8.0432)" d="m387.55 12.169c-1.522-6.081-6.666-10.574-12.896-11.266-0.332-0.038-8.258-0.903-19.774-0.903-27.512 0-65.012 4.698-87.426 27.077-41.959 41.9-26.717 108.88-26.049 111.71 1.35 5.705 5.899 10.101 11.646 11.255 0.427 0.086 10.626 2.1 25.095 2.1 23.995 0 57.967-5.361 83.543-30.904 42.05-41.993 26.542-106.35 25.861-109.06z" fill="#5fd35f" stroke="#000" stroke-width="5.1638"/>
  <path transform="matrix(.070834 0 0 .068211 -4.4461 -8.0432)" d="m364.77 170.18c-2.586-2.66-5.257-5.209-8-7.651-27.105 15.739-56.4 19.606-78.627 19.606-17.156 0-29.646-2.414-31-2.687-17.188-3.451-30.9-16.704-34.936-33.769-0.403-1.706-1.516-6.756-2.472-14.154-23.495 7.42-44.882 20.53-62.505 38.655-28.385 29.195-44.017 68.22-44.017 109.89 0 48.621 20.642 76.261 38.854 100.65 8.239 11.033 16.023 21.455 22.243 33.703 3.792 7.465 7.281 14.742 10.656 21.78 9.741 20.313 18.153 37.858 29.558 51.325 13.947 16.471 30.787 24.477 51.482 24.477 40.465 0 79.929-30.918 111.12-87.06 25.307-45.548 41.658-102.41 41.658-144.87 1e-3 -41.665-15.631-80.69-44.015-109.89z" fill="#fc0" stroke="#000" stroke-width="5.1638"/>
  <g transform="matrix(.052065 0 0 .052065 1.6523 1.4944)">
   <path d="m443.29 151.9c-21.556-2.48-41.537-3.737-59.347-3.737-74.245 0-98.029 21.416-110.81 32.923l-2.052 1.833c-9.394 8.263-25.03 9.521-33.534 9.536l-7.2 8e-3 -7.197-8e-3c-8.496-0.014-24.131-1.272-33.522-9.536l-2.048-1.833c-12.78-11.507-36.576-32.923-110.82-32.923-17.819 0-37.784 1.256-59.348 3.737-10.093 1.162-18.047 10.496-17.38 20.377 1.713 25.235 10.652 87.354 56.609 119.09 20.065 13.854 42.731 21.176 65.551 21.176 46.907 0 81.904-30.36 89.163-77.332 0.104-0.629 2.733-15.362 18.089-15.362l1.026 0.014 0.793-0.014c15.356 0 17.977 14.733 18.085 15.339 7.262 46.995 42.258 77.355 89.161 77.355 22.822 0 45.484-7.322 65.554-21.176 45.953-31.755 54.894-93.857 56.608-119.09 0.673-9.881-7.286-19.222-17.385-20.377zm-310.65 140.74c-3.228 0.213-6.344 0.305-9.349 0.305-25.626 0-45.597-7.313-59.364-21.772-22.069-23.15-22.847-58.853-22.157-73.125 0.118-2.418 2.465-5.714 4.751-6.642 11.651-4.757 34.989-12.746 60.402-12.746 10.361 0 20.079 1.356 28.879 4.042 36.53 11.146 52.121 27.198 52.121 53.699 8e-3 28.572-25.32 54.328-55.283 56.239zm264.14-21.468c-13.762 14.459-33.734 21.772-59.346 21.772-3.006 0-6.127-0.092-9.354-0.305-29.959-1.911-55.282-27.667-55.282-56.24 0-26.501 15.585-42.561 52.125-53.699 8.792-2.685 18.514-4.042 28.877-4.042 25.415 0 48.751 7.989 60.396 12.746 2.284 0.936 4.641 4.224 4.753 6.65 0.686 14.265-0.092 49.951-22.169 73.118z"/>
  </g>
 </g>
</svg>
