<svg width="512" height="268" version="1.1" viewBox="0 0 135.47 70.908" xmlns="http://www.w3.org/2000/svg">
 <g transform="translate(304.21 -265.22)" fill="#a00">
  <path d="m-221.27 335.96c-3.0922-0.26897-8.965-0.69313-11.067-0.79933-1.1909-0.0602-2.8149-0.1824-3.6089-0.27164-0.79396-0.0892-2.2186-0.20801-3.1658-0.2639-0.94725-0.0559-3.3291-0.2268-5.293-0.37979s-4.2204-0.31198-5.0143-0.35331c-3.6858-0.19186-4.3838-0.46176-5.0424-1.9498l-0.39093-0.88328 0.21084-3.4267c0.21532-3.4996 0.25776-4.1661 0.39548-6.2102 0.0433-0.642 0.12479-2.137 0.18119-3.3223 0.12781-2.6862 0.2665-3.1955 1.1242-4.1288l0.68644-0.74696-1.0303-1.7617c-0.56665-0.96892-1.1317-2.175-1.2558-2.6802-0.18438-0.75105-0.53233-4.676-0.82172-9.2691-0.0519-0.82362-0.20175-2.6929-0.6263-7.8118-0.13107-1.5803-0.34695-4.3279-0.47974-6.1058-0.13278-1.7779-0.32419-4.3284-0.42536-5.668-0.15918-2.1078-0.15102-2.5064 0.0607-2.9631 0.27182-0.58638 1.6991-2.1482 3.8849-4.251 0.79396-0.7638 2.0932-2.0365 2.8871-2.8282 1.7784-1.7733 2.4372-2.1579 3.6996-2.1597 0.52351-8.5e-4 1.5653-0.0822 2.3152-0.18086 0.74985-0.0988 3.0595-0.34035 5.1326-0.53695s4.9241-0.47675 6.3356-0.62255 2.8911-0.27819 3.2881-0.29418c0.39698-0.016 1.5157-0.13621 2.4861-0.26714 1.7304-0.23347 2.4284-0.30166 5.5707-0.54419 1.5212-0.11741 1.5769-0.10801 2.1936 0.37053 1.1189 0.86815 1.2229 1.371 1.6923 8.1825 0.12591 1.8272 0.33925 4.6153 0.47409 6.1956 0.21496 2.5194 0.32123 3.903 0.4896 6.3752 0.0236 0.3457 0.19824 2.5276 0.38819 4.8487 0.79279 9.687 0.9891 12.213 1.0821 13.923 0.0967 1.7792 0.0925 1.8082-0.34847 2.3949-0.53546 0.71249-1.024 0.94353-1.9938 0.94293-0.7086-1.7e-4 -3.2721-0.2716-4.5947-0.48602-0.73273-0.11879-0.32189-0.47384-5.3513 4.6246-1.971 1.9981-2.7925 2.6648-3.2837 2.6648-0.19167 0-1.138-0.27473-2.1028-0.61051-0.9649-0.33578-2.6205-0.91218-3.6791-1.2809-1.0586-0.36871-2.296-0.75243-2.7497-0.85271-0.80659-0.17825-0.85127-0.1651-2.0049 0.59022-0.64897 0.42489-1.4959 0.96532-1.8821 1.201s-0.99967 0.6542-1.3634 0.93015c-0.91191 0.69193-3.5868 2.3574-3.7862 2.3574-0.26049 0-0.19488 0.29909 0.31243 1.4243 0.46879 1.0398 0.48314 1.0528 1.0025 0.90943 0.28977-0.08 1.1404-0.43841 1.8902-0.7965 3.947-1.8848 5.6056-2.5214 6.162-2.3651 0.19084 0.0537 2.068 1.0369 4.1714 2.1851 2.3506 1.2831 3.9552 2.0589 4.1638 2.0132 0.18667-0.041 1.7962-1.1377 3.5766-2.4373 4.1082-2.9986 4.3604-3.1456 5.2235-3.0437 0.91654 0.10815 5.7119 1.8597 6.2154 2.2703 0.875 0.71345 1.0465 1.3483 0.99993 3.7015-0.0234 1.1852-0.11473 2.9629-0.20282 3.9503-0.0881 0.98743-0.19845 2.7653-0.24524 3.9508-0.12201 3.0913-0.35806 4.9537-0.6943 5.4778-0.15843 0.24693-0.52666 0.63078-0.8183 0.85301-0.46272 0.3526-0.71622 0.40055-1.9902 0.37643-0.80296-0.0152-2.1456-0.0873-2.9837-0.16016zm2.4341-5.1997c0.10921-0.80851 0.39324-5.2435 0.51492-8.0401 0.0541-1.2432 0.0216-1.5111-0.19913-1.6429-0.39442-0.23559-2.7867-1.0919-3.0504-1.0919-0.12608 0-1.8243 1.1614-3.7737 2.581-1.9495 1.4195-3.79 2.7209-4.09 2.8919-0.98335 0.56055-1.0673 0.52519-8.7574-3.6907l-0.96237-0.5276-1.203 0.51816c-0.66163 0.28497-2.5587 1.134-4.2158 1.8868-1.8255 0.82928-3.241 1.3687-3.5917 1.3687-0.48099 0-0.71484-0.15221-1.3828-0.90005-0.44214-0.49502-0.8423-0.85705-0.88924-0.80449-0.0985 0.11029-0.25445 3.0029-0.26131 4.8472l-5e-3 1.2571 1.604 0.10873c4.8443 0.32838 9.7323 0.69234 10.506 0.78227 0.4852 0.0564 2.2175 0.18591 3.8495 0.2878s3.8334 0.2599 4.892 0.35114c1.0586 0.0912 2.9713 0.21787 4.2505 0.28139 1.2792 0.0635 2.6125 0.1687 2.9629 0.23371 0.35045 0.065 1.3247 0.11635 2.165 0.11407l1.5278-4e-3 0.10915-0.80812zm-27.832-18.747c0.51572-0.33516 2.0878-1.3826 3.4935-2.3276 1.4057-0.94502 2.7608-1.7686 3.0114-1.8302 0.30558-0.0751 1.0747 0.1044 2.3362 0.54535 4.4121 1.5423 5.9195 2.0505 6.3879 2.1537 0.58105 0.128 1.074-0.27031 3.6729-2.9674 0.88217-0.91554 2.1814-2.1881 2.8871-2.8279l1.2832-1.1633 1.9247 0.10933c1.0586 0.0601 2.0872 0.16113 2.2856 0.22441 0.34949 0.11143 0.36089 0.0757 0.36089-1.133 0-0.68643-0.069-1.6858-0.15322-2.2208-0.0843-0.53502-0.26683-2.7102-0.40569-4.8338s-0.32072-4.5883-0.40414-5.4773c-0.0834-0.88892-0.19315-2.3031-0.24387-3.1427-0.0507-0.83955-0.16177-2.2134-0.24679-3.0529-0.085-0.83955-0.18356-2.0517-0.21899-2.6937-0.0354-0.642-0.13861-2.0158-0.22931-3.0529s-0.2481-3.0574-0.34977-4.4896c-0.10168-1.4322-0.23547-2.9272-0.29731-3.3223l-0.11245-0.71834-0.95487 0.0514c-0.52517 0.0282-1.6045 0.13106-2.3984 0.22856-0.79396 0.0975-2.9593 0.30428-4.8119 0.45954s-4.0901 0.35562-4.9722 0.44526c-0.88218 0.0896-3.4806 0.3455-5.7742 0.56858l-4.1703 0.40559 0.0572 1.1448c0.0636 1.273 0.0839 1.6067 0.2653 4.3663 0.12564 1.911 0.12368 1.9273-0.30681 2.5592-0.23829 0.34979-0.65688 0.76545-0.9302 0.9237-0.50722 0.29366-0.84171 0.29215-5.9567-0.027l-1.2574-0.0784 0.10737 1.48c0.11639 1.6045 0.12699 1.7357 0.38803 4.8023 0.0967 1.1359 0.39147 4.9744 0.65509 8.5302 0.26361 3.5557 0.5141 6.7074 0.55665 7.0037 0.0425 0.29632 0.12094 1.4202 0.1742 2.4976 0.0533 1.0774 0.18148 2.2142 0.28491 2.5263 0.21015 0.63409 2.8358 4.9429 3.012 4.9429 0.0619 0 0.53451-0.27421 1.0502-0.60935zm5.5583-5.3023c-1.0204-0.41616-1.8058-1.0688-2.3479-1.9508-0.4618-0.75141-1.389-3.247-1.3935-3.7506-2e-3 -0.18108-0.21813-0.68487-0.48118-1.1195-0.26305-0.43464-0.47827-0.89049-0.47827-1.013 0-0.56477 1.1719-2.0617 2.4825-3.171 2.4236-2.0513 4.5323-3.039 7.3542-3.4444 2.6454-0.38007 5.0697 0.0912 7.779 1.5121 2.3557 1.2355 3.6034 2.5105 3.433 3.5082-0.11263 0.65964-0.93754 1.5126-1.4628 1.5126-0.24139 0-0.9351-0.33508-1.5416-0.74464-2.1943-1.4817-4.5368-2.3019-6.576-2.3024-0.70574-1.6e-4 -1.3611 0.0591-1.4564 0.13161-0.11402 0.0869-0.17089 1.2678-0.16634 3.4542 6e-3 2.7735-0.042 3.4827-0.28917 4.2936-0.38643 1.2676-1.6676 2.7794-2.5791 3.0433-1.2832 0.37148-1.4575 0.37459-2.2764 0.0406zm-4.9918-17.882c-0.66821-0.62953-0.75696-1.206-0.33225-2.1582l0.35074-0.78629-0.50534-0.64439c-0.66004-0.84168-0.6497-1.4041 0.04-2.1763 0.63821-0.71455 1.2011-0.78567 1.9848-0.25073 0.68062 0.46461 0.80939 0.44822 1.4737-0.18756 0.30543-0.2923 0.69127-0.53145 0.85743-0.53145 0.48594 0 1.1924 0.55777 1.4899 1.1764 0.26875 0.55874 0.26543 0.59345-0.13302 1.3916l-0.40864 0.8186 0.37044 0.38965c0.20374 0.21429 0.4563 0.62172 0.56125 0.90538 0.16117 0.43567 0.1434 0.60718-0.11446 1.1046-0.16789 0.32391-0.56521 0.74665-0.88294 0.93945l-0.57768 0.35055-0.65489-0.48523c-0.36019-0.26688-0.71057-0.48299-0.77862-0.48024-0.0681 3e-3 -0.40726 0.24519-0.75379 0.53875-0.76904 0.65149-1.3588 0.67683-1.9867 0.0853zm14.652-2.0843c-0.66876-0.65742-0.71901-1.1561-0.21723-2.1556l0.34973-0.69671-0.33905-0.40524c-0.57983-0.69302-0.72297-1.3482-0.42001-1.9224 0.27445-0.52019 0.99064-1.0868 1.3737-1.0868 0.12211 0 0.50517 0.16162 0.85124 0.35916 0.78613 0.44874 0.76065 0.45047 1.3351-0.0907 0.7991-0.75284 1.341-0.76675 2.0372-0.0523 0.69907 0.71728 0.77449 1.3422 0.25662 2.1265-0.18746 0.28389-0.34084 0.56936-0.34084 0.6344 0 0.065 0.21654 0.39438 0.48119 0.73186 0.66354 0.84614 0.63855 1.4867-0.0858 2.1987-0.66323 0.65198-0.98398 0.68655-1.839 0.19819-0.80414-0.45933-0.80593-0.45912-1.5238 0.17958-0.76837 0.68366-1.2091 0.67939-1.9192-0.0186zm-17.039-10.173c0.10982-0.2188-0.0765-2.3795-0.20515-2.3795-0.0649 0-0.61031 0.50507-1.2121 1.1224l-1.0942 1.1224 0.4695 0.11344c0.68218 0.16482 1.9632 0.17815 2.0419 0.0212zm67.309 57.708c-1.666-0.71172-2.5446-1.5255-3.2176-2.9804-0.35252-0.76208-0.37864-1.0537-0.45838-5.1181l-0.0846-4.31-18.927-0.1796-0.85953-0.53303c-1.4919-0.92519-2.7445-2.975-2.7478-4.4968-1e-3 -0.67135 0.67819-3.1387 1.0879-3.9493 0.21221-0.41989 1.794-4.4647 2.458-6.2854 0.25215-0.69139 0.60051-1.5803 0.77413-1.9754 0.17362-0.39508 0.81855-2.0517 1.4332-3.6814 1.0146-2.6902 2.5175-6.5462 2.9048-7.4527 0.0844-0.19754 0.50885-1.2885 0.94324-2.4244s1.0941-2.8329 1.4661-3.7712c0.37196-0.93831 1.0222-2.6354 1.4451-3.7712 1.1461-3.0788 2.9621-7.7354 3.3413-8.5676 0.45122-0.99026 1.8458-2.3198 2.809-2.678 1.0014-0.37238 2.4833-0.24699 3.4537 0.29223 0.87294 0.48509 2.2059 2.0032 2.6008 2.962 0.57522 1.3967 0.40844 2.2789-1.2222 6.465-0.38476 0.9877-0.9482 2.4423-1.2521 3.2325-0.3039 0.79017-0.93082 2.366-1.3932 3.5019-0.46234 1.1359-1.0119 2.5726-1.2212 3.1927-0.20935 0.62013-0.60709 1.6707-0.88386 2.3346-1.4578 3.4966-1.733 4.1827-2.1417 5.3374-0.24468 0.69139-0.64387 1.742-0.88709 2.3346-1.0021 2.4417-1.7608 4.3618-2.0578 5.2079-0.17335 0.49384-0.6471 1.6959-1.0528 2.6713-0.40567 0.97535-0.73759 1.8856-0.73759 2.0227 0 0.20869 0.86951 0.24163 5.3331 0.20203l5.3332-0.0473 0.0863-7.1833c0.076-6.3217 0.12084-7.2848 0.37397-8.0298 0.74263-2.1855 3.2568-3.8284 5.2907-3.4572 0.96404 0.17593 2.447 1.1129 3.0966 1.9565 1.1463 1.4887 1.0886 1.0344 1.1771 9.2611l0.0802 7.4527 1.2308 0.11202c1.5246 0.13875 2.4455 0.61425 3.5686 1.8426 2.0657 2.2593 1.6244 5.3868-1.0292 7.2932-0.70091 0.50357-0.98415 0.58931-2.2852 0.69181l-1.4851 0.117-0.0802 4.3998c-0.0797 4.3714-0.083 4.405-0.50812 5.2079-0.57849 1.0925-1.5065 2.0637-2.379 2.4897-0.96793 0.47263-2.6387 0.62655-3.3771 0.31112zm-97.165-0.74887c-0.87946-0.33074-1.2051-0.57191-1.8383-1.3616-1.3442-1.6763-1.3058-1.4995-1.3958-6.437l-0.0802-4.3998-18.766-0.1796-0.83626-0.42338c-0.96846-0.49029-2.1704-1.8433-2.6178-2.947-0.60747-1.4983-0.42196-2.6421 1.0408-6.4168 0.32532-0.83954 0.93911-2.4558 1.364-3.5916 0.42488-1.1359 1.2957-3.3986 1.9352-5.0283 1.1355-2.8937 1.4744-3.7713 2.8778-7.4527 0.37654-0.9877 1.1531-2.9676 1.7258-4.3998 0.57264-1.4322 1.1721-2.9676 1.3321-3.4121 0.77686-2.1576 2.268-5.9968 2.7091-6.9753 0.2717-0.60261 0.49399-1.1716 0.49399-1.2645 0-0.0928 0.50388-1.4034 1.1197-2.9122 1.4706-3.6032 2.1975-4.456 4.2535-4.9905 1.529-0.39747 3.8109 0.69762 4.807 2.3069 0.5064 0.81816 0.88979 2.1445 0.87997 3.0444-8e-3 0.7353-0.10036 1.0262-1.3447 4.2365-0.4977 1.284-1.132 2.9407-1.4096 3.6814-0.27762 0.74077-0.73653 1.9126-1.0198 2.6039-0.70832 1.7287-2.2129 5.5592-3.0332 7.722-0.37461 0.98771-1.0989 2.8464-1.6096 4.1304-2.7287 6.8609-4.6812 12.048-4.5808 12.169 0.0624 0.0754 2.4907 0.11586 5.3962 0.0898l5.2828-0.0474 0.0802-7.3629c0.0881-8.0899 0.0702-7.9402 1.1283-9.4358 0.66756-0.94371 2.4971-1.9676 3.5156-1.9676 2.192 0 4.3754 1.6508 5.0085 3.7869 0.1159 0.39101 0.21618 3.2135 0.27699 7.7962l0.0953 7.1833 1.2266 0.12455c1.4691 0.14918 2.0378 0.39721 3.1236 1.3621 1.0759 0.95613 1.6647 2.2431 1.6647 3.6389 0 0.87381-0.0865 1.1642-0.62428 2.0958-1.0629 1.8412-2.5164 2.7455-4.4132 2.7455h-1.0242l-0.0652 4.2651c-0.0528 3.45-0.11571 4.3938-0.32926 4.9384-1.0979 2.8002-3.7192 4.0737-6.3493 3.0846z" fill="#a00" stroke-width=".16972"/>
 </g>
</svg>
