<svg width="64" height="64" version="1.1" viewBox="0 0 22.576 12.538" xmlns="http://www.w3.org/2000/svg">
 <ellipse cx="9.1218" cy="15.209" rx="8.2668" ry="7.3279" fill="none" stroke-width="3.0595"/>
 <g transform="translate(.063537 -.39652)">
  <rect x="-.063537" y="-4.6224" width="22.576" height="22.576" ry="1.3938" fill="none" stroke-width=".38756"/>
  <g fill="#75c82b" stroke-width=".024147">
   <path d="m7.1283 6.7109a4.1211 4.1211 0 1 1 8.0073 1.3734 1.0303 1.0303 0 1 1-1.9431-0.68616 2.0606 2.0606 0 1 0-1.9431 1.3734 1.0303 1.0303 0 0 1 0 2.0606 4.1211 4.1211 0 0 1-4.1211-4.1211z"/>
   <path d="m9.7576-2.4451-0.97464 1.7319a3.0908 3.0908 0 0 1-2.7282 1.5743l-1.9874-0.020606a9.2148 9.2148 0 0 0-1.4651 2.5427l1.0107 1.7082a3.0908 3.0908 0 0 1 0 3.1485l-1.0117 1.7103a9.3013 9.3013 0 0 0 1.4681 2.5417l1.9853-0.02164a3.0908 3.0908 0 0 1 2.7282 1.5743l0.97361 1.7298a9.2158 9.2158 0 0 0 2.9353 0.0021l0.97464-1.7309a3.0908 3.0908 0 0 1 2.7271-1.5763l1.9884 0.02267a9.2158 9.2158 0 0 0 1.4651-2.5437l-1.0117-1.7082a3.0908 3.0908 0 0 1 0-3.1485l1.0128-1.7103a9.2993 9.2993 0 0 0-1.4681-2.5417l-1.9864 0.021636a3.0908 3.0908 0 0 1-2.7271-1.5743l-0.97361-1.7288a9.2148 9.2148 0 0 0-2.9363-0.00309zm-0.37193-2.0276a11.275 11.275 0 0 1 3.6812 0.00309c0.62435 0.10303 1.1292 0.49556 1.4146 1.0035l0.98082 1.7422a1.0303 1.0303 0 0 0 0.9087 0.52544l2.0018-0.022666a2.0059 2.0059 0 0 1 1.5784 0.72634 11.362 11.362 0 0 1 1.837 3.1836 2.0059 2.0059 0 0 1-0.15969 1.7298l-1.02 1.7226a1.0303 1.0303 0 0 0 0 1.0499l1.02 1.7206c0.29569 0.50071 0.38326 1.1333 0.16072 1.7267a11.273 11.273 0 0 1-1.838 3.1887c-0.40181 0.49041-0.99422 0.7315-1.5763 0.72531l-2.0039-0.021635a1.0303 1.0303 0 0 0-0.9087 0.52441l-0.98288 1.7453a2.0059 2.0059 0 0 1-1.4156 1.0035 11.276 11.276 0 0 1-3.6812-0.0031 2.0059 2.0059 0 0 1-1.4146-1.0035l-0.98082-1.7412a1.0303 1.0303 0 0 0-0.90973-0.52544l-2.0008 0.02267a2.0049 2.0049 0 0 1-1.5784-0.72635 11.359 11.359 0 0 1-1.838-3.1836 2.0059 2.0059 0 0 1 0.16072-1.7309l1.02-1.7206a1.0303 1.0303 0 0 0 0-1.0509l-1.02-1.7206a2.0059 2.0059 0 0 1-0.16072-1.7257 11.274 11.274 0 0 1 1.838-3.1897c0.40181-0.49041 0.99422-0.7315 1.5763-0.72531l2.0029 0.022666a1.0303 1.0303 0 0 0 0.90973-0.52544l0.98185-1.7453a2.0059 2.0059 0 0 1 1.4166-1.0035z"/>
  </g>
 </g>
</svg>
